<svg version="1" xmlns="http://www.w3.org/2000/svg" width="880" height="880" viewBox="0 0 660.000000 660.000000"><path d="M186.6 62.5c-6.8 3.4-9.5 7.9-10.2 16.5-.6 7.5.7 12.6 4.8 18.1.9 1.3.6 2.7-1.9 7-1.7 3-4.7 8.5-6.8 12.4-2.1 3.8-5.2 9.5-7 12.5-4.5 7.6-21.4 39-25.5 47.5-1.9 3.8-4.3 8.2-5.2 9.7-1 1.4-3.9 6.6-6.5 11.5-2.5 4.8-6.6 12-9 16-2.3 3.9-4.3 7.6-4.3 8.2 0 .6-1.4 3.2-3 5.8-1.7 2.6-3 5.1-3 5.5 0 .5-1.6 3.4-3.5 6.4-1.9 3-3.5 5.6-3.5 5.8 0 .2-3.9 7.2-8.6 15.6-4.7 8.3-8.9 16.1-9.5 17.3-.5 1.2-1.8 3.5-2.8 5.2-1 1.6-5.1 8.6-8.9 15.4l-7.1 12.4-6.3-.2c-5.5-.2-6.9.2-11.1 2.8-7.8 5-10.5 11.3-9.2 21.6.5 4.6 1.4 6.2 5.1 10.4 5 5.6 10.1 7.7 16.7 6.8 3.5-.5 3.9-.3 6.3 3.5 1.4 2.2 2.8 4.7 3.1 5.6.4.9 2.1 3.9 3.8 6.7 3.2 5 7 11.9 18 33 5.5 10.5 10.4 19.7 16.8 31.5 1.6 3 7 13.1 11.9 22.5 5 9.3 9.8 18.3 10.8 20 .9 1.6 3.6 6.4 5.8 10.5 2.2 4.1 6.3 11.7 9.1 16.9 2.8 5.2 5.1 9.7 5.1 10.1 0 .4.9 1.5 2 2.5s2 2.2 2 2.7c0 .6 5.2 10.7 11.6 22.5 10.6 19.6 11.6 21.8 10.4 23.7-8.3 12.9-7 24.2 3.6 32.3 3.3 2.4 4.6 2.8 10.5 2.8 5.8 0 7.3-.4 11.1-3 2.9-2 5.1-4.7 6.8-8.2l2.5-5.2h114.7l114.7.1 1 3.1c3.6 10.1 15.3 16.5 24.6 13.2 4.6-1.5 11.5-7 11.5-9 0-.7.5-1.5 1.2-1.7.8-.3 1.2-3.2 1.2-8.5.1-7.5-.1-8.5-3-12.6l-3.2-4.4 3.5-6.4c1.9-3.5 5.6-10.2 8-14.9 2.5-4.7 4.9-9 5.3-9.5.4-.6 2.3-3.9 4.2-7.5 1.9-3.6 3.9-7.4 4.5-8.5.6-1.1 2.6-4.9 4.4-8.5 1.7-3.6 5.9-11.2 9.2-17 3.3-5.8 7.6-13.4 9.5-17 1.9-3.6 3.8-7 4.4-7.7.5-.6 3.3-5.8 6.3-11.6 2.9-5.8 6.4-12.2 7.7-14.4 1.3-2.1 3-5.2 3.8-6.8.8-1.7 3.1-5.7 5-9 2-3.3 5.8-10.3 8.4-15.5 2.7-5.2 5.2-10 5.6-10.5.4-.6 2.5-4.4 4.7-8.5s5.5-10 7.2-13c1.7-3 3.6-6.6 4.2-8 2.2-5 4.4-9.5 5-10 .3-.3 1.3-1.9 2.2-3.6 1.5-3 1.9-3.1 6-2.7 3.2.4 5.8-.1 9.3-1.6 6.6-3 8.3-4.6 11.5-11.7 2.8-6 2.8-6.2 1.3-12-3.2-12.1-8.4-16.5-20.2-16.8-6.3-.1-6.3-.1-8.4-4.1-1.1-2.2-2.5-4.9-3.1-6-7.2-13.7-9.1-17.2-11.1-20.3-1.3-2-4.3-7.5-6.8-12.2-2.5-4.7-5.6-10.5-7-13-1.4-2.5-4-7.1-5.7-10.4-1.8-3.2-5.2-9.5-7.7-13.9-2.4-4.3-4.4-8.3-4.4-8.7 0-.4-.6-1.3-1.4-1.9-.8-.7-3.1-4.7-5.1-8.9-1.9-4.2-4-8.4-4.5-9.2-1.1-1.8-4-7.2-10.9-20.5-2.9-5.5-7.2-13.6-9.6-18-2.5-4.4-6.4-11.8-8.8-16.5-8-15.5-10.2-19.5-10.9-20-.4-.3-1.5-2.6-2.6-5-1.1-2.5-4.3-8.8-7.2-14l-5.2-9.4 3.1-5.7c4.2-7.7 4.4-15.7.4-22.8-1.6-2.8-3.5-5.2-4.3-5.5-.8-.3-3.1-1.5-5-2.6-2.8-1.7-4.6-2-9.4-1.7-7.3.7-12.1 4.1-15.6 11.4-2.4 5-2.5 5.1-7.5 5.6-4.5.5-143.3 1.3-168.5 1-5.8-.1-20-.2-31.6-.2l-21.2-.1-2.8-5.6c-3.2-6.4-7.1-9.7-12.9-11.3-5.3-1.4-8.2-1.1-12.9 1.4zm15.7 9.2c9.9 7.5 5.2 23.3-7 23.3-9.2 0-14.4-10.2-10.2-20.3 2.5-6 11.2-7.5 17.2-3zm265.8-.4c5.8 3.9 6.9 12.4 2.5 19.1-3.8 5.9-14.7 5.4-18.5-.8-2.3-3.7-2.8-11.3-1-14.9 3.1-6 10.9-7.5 17-3.4zM442.7 89c.9 3.7 7.2 11.1 10.5 12.2l2.9 1-.6 11.7c-.8 16.1-4.4 71.5-5 77.6-.3 2.7-.7 13.1-1 23-.7 25.4-1.5 33.5-3.2 33.5-.7 0-3-1-5.1-2.3-3.3-2.1-19.5-10.9-23.2-12.7-7.2-3.5-36.2-18.5-40.5-21-2.9-1.7-10.3-5.7-23.6-12.8l-6.7-3.6-.4-7c-.7-10.4-4.7-16.8-12.6-19.9-5.5-2.2-9.4-2.1-14 .2-7.9 4.1-12.2 11.1-12.2 19.9v5.9l-17.7 9.8c-9.8 5.4-20 11-22.8 12.3-2.7 1.3-5.7 3-6.5 3.7-.8.7-6.4 3.8-12.5 7-6 3.2-11.4 6.1-12 6.5-2.2 1.6-28.7 15.2-29 14.8-.2-.1-.6-5.9-.9-12.8-.2-6.9-.7-13.2-1-14-.2-.8-.7-9.2-1.1-18.5-.3-9.4-.8-19.9-1-23.5-.2-3.6-.7-13.9-1-23-1-27.9-1.4-35.2-2-42.7-.6-8.2.5-12 3.8-13.2 3-1.2 6.7-5.5 9-10.6l1.8-4h227l.6 2.5zm-250.4 14.7c.5.7 1 10.4 2.2 39.3.3 6.3.7 16.9 1 23.5.3 6.6.8 16.7 1 22.5.3 5.8.9 17 1.5 25 .5 8 1.3 19.9 1.6 26.6l.7 12.1-5.5 3.1c-6.8 3.9-22.7 12.4-38.3 20.4-6.6 3.4-12.7 6.7-13.6 7.3-.9.5-8.1 4.3-16 8.4-7.9 4-14.8 7.7-15.4 8.1-2.4 1.9-35.5 18-37 18-2.1 0-3.1-2.9-1.7-4.9.6-.9 3.1-5.2 5.5-9.6 2.5-4.4 6.2-11.2 8.4-15 6.1-10.7 18.1-32.3 22.1-39.5 1.9-3.6 4.4-8.1 5.6-10 2.8-4.7 4.5-7.8 10.1-18.5 2.5-5 6.2-11.7 8.1-15 1.9-3.3 4.9-8.9 6.6-12.5 1.7-3.6 5.6-10.8 8.6-16 3-5.2 7.7-13.8 10.5-19 2.7-5.2 5.3-10 5.7-10.5.5-.6 2.7-4.8 5-9.5 2.4-4.7 4.8-9.2 5.5-10 1.1-1.3 6.6-11.4 11.9-21.8 1.5-3 4.8-4.3 5.9-2.5zm279.7 6.8c2.1 3.8 4.9 9 6.1 11.5 1.3 2.5 3.7 7 5.4 10 1.8 3 7.1 13 11.8 22.2 4.8 9.1 9.7 18.6 11 21 1.4 2.3 5.4 9.9 9 16.8 3.6 6.9 8.8 16.5 11.6 21.5 2.7 4.9 6.3 11.7 8 15 2.6 5.4 7.6 14.6 14.1 26 6.4 11.3 20.9 38 24.8 45.5 2.4 4.7 5.2 9.9 6.3 11.6 1.6 2.6 1.7 3.3.5 4.9-1.2 1.7-1.5 1.6-6.7-1-5.6-3-16-8.1-23.9-11.9-2.5-1.1-8.2-4.2-12.8-6.8-4.6-2.7-8.7-4.8-9.2-4.8-.4 0-1.3-.6-1.9-1.4-.7-.8-2.4-1.7-3.9-2.1-1.5-.3-3.6-1.4-4.7-2.4s-4.4-2.8-7.4-4c-3-1.3-8.8-4.2-13-6.5-4.2-2.3-9.2-5-11.1-5.9-1.9-1-4.8-2.6-6.5-3.6-1.6-.9-7-3.9-12-6.5-4.9-2.6-9.7-5.6-10.5-6.6-1.3-1.3-1.5-3.7-1.3-10.6.2-4.9.6-9.6 1-10.4.3-.8.5-5.1.4-9.5-.2-4.4.2-14.3.8-22 1.1-14.9 1.5-20.6 3.1-52 .6-11 1.3-20.6 1.5-21.3.3-.7.5-5.4.6-10.5.1-11.7.6-13.9 3.1-13.5 1.2.2 3.4 2.9 5.8 7.3zM330.7 176c2.4 0 7.3 5.2 8.3 8.8 2.2 8-3.7 17.2-11 17.2-6.9 0-13-6.4-13-13.7 0-6.4 7.5-14.1 12.5-12.8 1.1.3 2.5.5 3.2.5zm-16.1 29.1c1 1.2 3.3 2.8 5 3.5l3.2 1.3.7 12.7c.8 13.9 0 87.8-1 89.4-.3.6-1.2 1-1.9 1s-3.1 1.3-5.3 2.9c-5.5 4-8.8 11.6-7.9 18.7l.6 5.2-4.3 2.5c-7.4 4.2-25.2 15.1-25.7 15.7-.3.4-3.4 2.4-7 4.5s-7.3 4.5-8.2 5.3c-1 .8-4.4 3.1-7.8 5.1-3.3 2-11 6.6-17.1 10.4-11.1 6.8-12.9 7.5-12.9 5.7 0-.6-2.4-2.2-5.4-3.7-4.9-2.4-5.4-2.9-6-6.7-.5-3.8-1.8-28.4-3.1-61.6-.3-7.4-1-22.1-1.5-32.5-1.5-28.2-1.7-25.9 3.3-28.8 2.3-1.4 8-4.4 12.7-6.7 4.7-2.4 12.3-6.4 17-9 4.7-2.6 13.5-7.3 19.5-10.5 6.1-3.2 12.9-7.1 15.2-8.7 5.9-4 32.5-17.8 34.4-17.8.9 0 2.4 1 3.5 2.1zm38.8 2.8c5 2.6 12 6.5 15.6 8.5 3.6 2 9.2 5 12.5 6.7 3.3 1.6 8 4.1 10.5 5.5 2.5 1.4 14.2 7.6 26 13.6 11.8 6.1 23.1 12.1 25.2 13.4 4.4 2.8 4.4 3.3 2.9 23.4-.5 6.3-1.2 17.1-1.6 24-.3 6.9-.8 13.2-1 14-.2.8-.7 8.3-1 16.7-.3 8.4-.8 16.2-1 17.3-.2 1.2-.6 8.7-.9 16.7-.3 8-.7 14.7-.8 14.8-.2.1-2.3 1.2-4.8 2.3-2.5 1.2-5.3 2.7-6.2 3.4-1.5 1-2.2 1-3.9 0-1.1-.7-5-2.9-8.7-4.9-3.7-2-7.8-4.4-9.2-5.3-1.4-1-11.8-7.4-23.2-14.3-11.4-6.8-24.7-15.1-29.5-18.3l-8.9-5.7.4-5.1c.8-9.7-3.1-17.1-11-21.2-1.8-.9-3.6-2.1-3.9-2.6-.3-.5-.4-6.6-.3-13.6.2-7 .5-29.4.6-49.9l.2-37.2 2.6-1.1c1.4-.6 3.9-2.1 5.5-3.5 1.7-1.3 3.4-2.4 3.9-2.5.4 0 4.9 2.2 10 4.9zM467 268.5c4.1 2.3 15.2 8.2 24.5 13 18.1 9.3 35 18.4 48 25.9 4.4 2.5 11.2 5.9 15 7.5 3.9 1.6 10.1 4.7 13.8 6.8l6.9 3.8.2 6.6c.3 5.1.9 7.5 3.1 10.9 2.5 4 2.7 4.7 1.5 7.9-.7 1.9-2.7 5.8-4.5 8.5-1.7 2.8-3.7 6.6-4.3 8.5-.7 1.9-3.3 7.1-5.9 11.5-2.6 4.5-6.4 11.2-8.4 15.1-2 3.8-5.8 10.8-8.4 15.5-2.6 4.7-7.4 13.7-10.8 20-3.3 6.3-8.5 15.8-11.5 21-3.1 5.2-6.4 11.3-7.5 13.5-1.1 2.2-4.9 9.1-8.4 15.2-3.5 6.2-6.8 12.3-7.3 13.5-.6 1.3-2.2 4.3-3.6 6.8s-5.8 10.6-9.6 18c-3.9 7.4-7.9 14.7-8.9 16.2-1.1 1.4-1.9 2.9-1.9 3.3 0 .4-2.5 5.3-5.6 10.9l-5.5 10.2h-6.2c-5.9 0-8.6.9-13.8 4.6-1.6 1.1-9.9-4.2-46.2-29.9-7.6-5.4-17.2-12.1-21.3-14.8-4.1-2.8-15.6-10.8-25.6-17.9-10-7-18.8-13-19.5-13.3-2.6-1-1.1-3.2 5.5-7.6 3.7-2.5 10.1-6.9 14.2-9.8 4.1-2.9 10.7-7.4 14.5-10.1 3.9-2.7 11.7-8.2 17.5-12.3 5.8-4.1 11.8-8.2 13.4-9.1 1.6-.9 6.5-4.4 11-7.7 4.5-3.4 10-7.4 12.2-9l4-2.7 5.5 3c6.4 3.5 11.2 3.8 17.3 1 9.2-4.4 14.5-17.6 10.7-26.5-2.4-5.4-6.4-10-10.2-11.5l-3.1-1.3.7-19c.3-10.5.8-19.3.9-19.6.2-.3.7-6.7 1-14.1.4-7.4 1.1-19.4 1.6-26.5.5-7.2 1.2-18 1.5-24 .3-6.1.8-12.7 1.1-14.7.7-4.3-.5-4.6 12.4 2.7zm-266.5-4.3c.2.7.9 13.7 1.5 28.8.6 15.1 1.3 29.3 1.4 31.5.2 2.2.6 12.8 1.1 23.5.4 10.7 1 20 1.4 20.7.3.6.5 4.2.3 8-.3 6.6-.5 7.1-3.5 8.8-7.6 4.5-10.7 9.9-10.7 18.9.1 16.3 16.6 25.8 29.6 17 2-1.4 4.1-2.1 4.8-1.7.7.5 10.1 7.1 20.9 14.8 10.9 7.7 22.6 15.9 26 18.2 3.4 2.4 12.2 8.4 19.5 13.5 7.4 5.1 15.5 10.8 18 12.6 9.4 6.5 9.3 5.6.7 11.8-4.2 3-13.6 9.5-21 14.5-7.3 4.9-13.5 9.3-13.7 9.7-.3.8-28.4 20.6-49.5 35-6 4.1-13 9-15.7 10.9l-4.8 3.5-6-3.2c-4.9-2.6-6.8-3.1-11-2.8l-5.1.3-9.3-17.5c-5.1-9.6-11.4-21.3-14.2-26-9.1-15.7-13.1-23.1-13.8-25.3-.4-1.2-1.7-3.8-3-5.7-1.3-1.9-2.4-3.9-2.4-4.3 0-.5-1.3-2.9-3-5.4-1.6-2.4-3-4.9-3-5.5 0-.6-.6-1.9-1.4-2.7-.8-.9-4.4-7.5-8.1-14.6-3.7-7.2-7.9-15.3-9.4-18-8.1-14.7-14.6-27.1-26.1-49-3.5-6.6-7.3-13.3-8.4-15-1.2-1.6-3.3-5.2-4.7-8-1.4-2.7-3.6-6.9-4.9-9.3l-2.3-4.3 2-2.2c3.4-3.7 4.6-6.9 5.2-13.7l.6-6.5 25.5-13c14-7.2 27.8-14.3 30.5-15.8 6.4-3.6 16.4-8.9 39-20.7 9.9-5.1 19.4-10.1 21-11.1 3.6-2.1 5.4-2.3 6-.7zm400.1 55.4c3.3.8 7.6 8.3 7 12.1-.2 1.5-.5 3.3-.5 4-.2 2.3-5.2 7.2-8.7 8.3-2.8 1-4.1.9-6.7-.4-5.9-2.8-7.2-5-7.2-12.8 0-6.5.2-7.1 3-9.3 2.9-2.4 6.7-3.5 9.3-2.8.8.2 2.5.6 3.8.9zm-535 1.9c4.2 3.2 6 8.5 4.5 13.4-1.4 4.8-5.9 9-10.4 9.8-12.7 2-19.6-14.7-9.6-23.2 4.2-3.5 10.9-3.5 15.5 0zm269.5 2.4c3.1 3.1 3.9 4.6 3.9 7.5 0 7.6-4 12.9-10.6 14.2-8.9 1.6-16.3-8.8-12.7-17.8 1.9-4.8 6.4-7.8 11.7-7.8 3.1 0 4.5.7 7.7 3.9zM314.3 349c7.5 5.9 16.4 6.2 23.8.8l4.1-2.9 5.6 3.6c5.1 3.3 16.2 10.1 36.2 22.3 3.6 2.2 11.2 6.9 17 10.5 5.8 3.5 12.8 7.7 15.5 9.2 2.8 1.5 5.4 3.1 5.8 3.5.5.4.9 4.2 1 8.5l.2 7.8-7.4 5.6c-4.1 3.1-12.4 9-18.5 13.1-11.3 7.7-17 11.6-37.6 26.1-6.3 4.4-16.5 11.4-22.7 15.6l-11.1 7.5-2.9-1.9c-3.5-2.2-27.2-19.1-36.9-26.1-3.9-2.9-7.5-5.2-8-5.2s-2.2-1.1-3.9-2.5c-4.2-3.5-4.5-3.7-9.3-6.8-6.5-4.2-28.8-20.2-32.1-23-2.9-2.4-3-2.6-2.4-10.1.4-5.2 1.1-8 2.2-8.9 1.9-1.6 18-11.7 18.6-11.7.5 0 9.1-5.5 24.5-15.4 5.2-3.4 12.9-8.2 17-10.7 4.1-2.4 9.7-5.9 12.5-7.6 2.7-1.8 5.2-3.3 5.6-3.3.3 0 1.8.9 3.2 2zm-97.4 43.4c4.3 2.3 6.1 5.8 6.1 11.9 0 5.1-.3 5.7-4 9.1-3.1 2.7-4.9 3.6-7.7 3.6-7.9 0-13.6-8.4-11.3-16.8 2-7.6 10.1-11.3 16.9-7.8zm230.6 0c4.1 1.8 6.1 4.8 6.9 10.6 1.6 11.6-12.6 18.4-20.5 9.8-5.8-6.4-4.2-16.3 3.2-20 4.1-2.2 5.9-2.2 10.4-.4zm-118.7 99.3c1.5 1 2.9 2 3.2 2.3.6.8 23.9 17 33 23 7 4.6 18.5 12.6 23 16 12.8 9.5 23.1 16.7 31.5 22 11.8 7.4 22.5 15.2 22.5 16.3 0 .5-.4 1.7-1 2.7-.9 1.7-5.2 1.8-115.2 1.3-112.8-.5-115.7-.6-115.8-3.5 0-.3 3.3-2.9 7.3-5.7 3.9-2.8 10.8-7.6 15.2-10.7 4.4-3.1 9-6.1 10.2-6.7 1.3-.6 2.3-1.4 2.3-1.9 0-.4.5-.8 1.1-.8.6 0 1.6-.6 2.3-1.3.8-.6 5.3-3.9 10.1-7.2 4.8-3.3 12.6-8.9 17.4-12.5 4.8-3.6 12.7-9.3 17.6-12.7 16-11.1 32-22.2 32.3-22.2.1-.1 1.5.7 3 1.6zm-128.7 78.1c3.3 3.7 4.7 10.8 2.9 14.3-2.8 5.5-6.2 7.9-10.8 7.9-5.5 0-9.7-2.4-11.8-6.9-3.1-6.5-1.4-12.8 4.6-16.9 4.9-3.3 11.3-2.6 15.1 1.6zm268.2-.5c4.4 4.1 5.9 11.1 3.4 16.3-5.5 11.5-22.5 7.6-22.9-5.2-.2-5.1 1.9-9.3 6.1-12.1 4.9-3.3 9.2-3 13.4 1z"/></svg>